# File created by Blade
# Date/Time:  Thu Jan 22 19:24:27 2015
#---------------------------------------------------------
:version 1.10
:name HOM
:units
  mass 1.0
  length 1.000000
  angle deg
:documentation
     Acclaim Skeleton File
:root
   axis xyz
   order TX TY TZ RX RY RZ
   position 0.000000 0.000000 0.000000
   orientation 0 0 0
:bonedata
   begin
      id 1
      name RightUpLeg_dum
      direction -1.000000 0.000000 0.000000
      length 4.478084
      axis 0.0 0.0 0.0 xyz
   end
   begin
      id 2
      name LeftUpLeg_dum
      direction 1.000000 0.000000 0.000000
      length 4.478084
      axis 0.0 0.0 0.0 xyz
   end
   begin
      id 3
      name Spine_dum
      direction 0.000000 1.000000 0.000000
      length 6.068208
      axis 0.0 0.0 0.0 xyz
   end
   begin
      id 4
      name RightUpLeg
      direction 0.000000 -1.000000 0.000000
      length 16.405774
      axis 0.0 0.0 0.0 xyz
      dof rx ry rz
   end
   begin
      id 5
      name RightLeg
      direction 0.000000 -1.000000 0.000000
      length 14.644143
      axis 0.0 0.0 0.0 xyz
      dof rx ry rz
   end
   begin
      id 6
      name RightFoot
      direction 0.000000 -0.258819 0.965926
      length 5.806150
      axis 15.0 0.0 0.0 xyz
      dof rx ry rz
   end
   begin
      id 7
      name RightToeBase
      direction 0.000000 0.000000 1.000000
      length 2.952750
      axis 0.0 0.0 0.0 xyz
      dof rx ry rz
   end
   begin
      id 8
      name LeftUpLeg
      direction 0.000000 -1.000000 0.000000
      length 16.405774
      axis 0.0 0.0 0.0 xyz
      dof rx ry rz
   end
   begin
      id 9
      name LeftLeg
      direction 0.000000 -1.000000 0.000000
      length 14.644143
      axis 0.0 0.0 0.0 xyz
      dof rx ry rz
   end
   begin
      id 10
      name LeftFoot
      direction 0.000000 -0.258819 0.965926
      length 5.806150
      axis 15.0 0.0 0.0 xyz
      dof rx ry rz
   end
   begin
      id 11
      name LeftToeBase
      direction 0.000000 0.000000 1.000000
      length 2.952750
      axis 0.0 0.0 0.0 xyz
      dof rx ry rz
   end
   begin
      id 12
      name Spine
      direction 0.000000 1.000000 0.000000
      length 0.000000
      axis 0.0 0.0 0.0 xyz
      dof rx ry rz
   end
   begin
      id 13
      name Spine_dum1
      direction 0.000000 1.000000 0.000000
      length 10.013923
      axis 0.0 0.0 0.0 xyz
   end
   begin
      id 14
      name Spine_dum2
      direction 0.000000 1.000000 0.000000
      length 10.013923
      axis 0.0 0.0 0.0 xyz
   end
   begin
      id 15
      name Spine_dum3
      direction 0.000000 1.000000 0.000000
      length 15.777476
      axis 0.0 0.0 0.0 xyz
   end
   begin
      id 16
      name RightShoulder
      direction -1.000000 0.000000 0.000000
      length 7.190220
      axis 0.0 0.0 90.0 xyz
      dof rx ry rz
   end
   begin
      id 17
      name RightArm
      direction -1.000000 0.000000 0.000000
      length 10.177469
      axis 0.0 0.0 90.0 xyz
      dof rx ry rz
   end
   begin
      id 18
      name RightForeArm
      direction -1.000000 0.000000 0.000000
      length 8.392114
      axis 0.0 0.0 90.0 xyz
      dof ry rz rx
   end
   begin
      id 19
      name RightHand
      direction -1.000000 0.000000 0.000000
      length 0.000000
      axis 0.0 0.0 90.0 xyz
      dof rx ry rz
   end
   begin
      id 20
      name RightHand_dum1
      direction -1.000000 0.000000 0.000000
      length 3.937000
      axis 0.0 0.0 90.0 xyz
   end
   begin
      id 21
      name RightHand_dum2
      direction 0.000000 0.000000 0.000000
      length 0.000000
      axis 0.0 0.0 90.0 xyz
   end
   begin
      id 22
      name RightHandThumb1
      direction 0.000000 0.000000 1.000000
      length 3.937000
      axis 0.0 0.0 90.0 xyz
      dof rx rz ry
   end
   begin
      id 23
      name LeftShoulder
      direction 1.000000 0.000000 0.000000
      length 7.190220
      axis 0.0 0.0 -90.0 xyz
      dof rx ry rz
   end
   begin
      id 24
      name LeftArm
      direction 1.000000 0.000000 0.000000
      length 10.177469
      axis 0.0 0.0 -90.0 xyz
      dof rx ry rz
   end
   begin
      id 25
      name LeftForeArm
      direction 1.000000 0.000000 0.000000
      length 8.392114
      axis 0.0 0.0 -90.0 xyz
      dof ry rz rx
   end
   begin
      id 26
      name LeftHand
      direction 1.000000 0.000000 0.000000
      length 0.000000
      axis 0.0 0.0 -90.0 xyz
      dof rx ry rz
   end
   begin
      id 27
      name LeftHand_dum1
      direction 1.000000 0.000000 0.000000
      length 3.937000
      axis 0.0 0.0 -90.0 xyz
   end
   begin
      id 28
      name LeftHand_dum2
      direction 0.000000 0.000000 0.000000
      length 0.000000
      axis 0.0 0.0 -90.0 xyz
   end
   begin
      id 29
      name LeftHandThumb1
      direction 0.000000 0.000000 1.000000
      length 3.937000
      axis 0.0 0.0 -90.0 xyz
      dof rx rz ry
   end
   begin
      id 30
      name Head
      direction 0.000000 1.000000 0.000000
      length 4.527550
      axis 0.0 0.0 0.0 xyz
      dof rx ry rz
   end
:hierarchy
   begin
      root RightUpLeg_dum LeftUpLeg_dum Spine_dum
      RightUpLeg_dum RightUpLeg
      LeftUpLeg_dum LeftUpLeg
      Spine_dum Spine
      RightUpLeg RightLeg
      RightLeg RightFoot
      RightFoot RightToeBase
      LeftUpLeg LeftLeg
      LeftLeg LeftFoot
      LeftFoot LeftToeBase
      Spine Spine_dum1 Spine_dum2 Spine_dum3
      Spine_dum1 RightShoulder
      Spine_dum2 LeftShoulder
      Spine_dum3 Head
      RightShoulder RightArm
      RightArm RightForeArm
      RightForeArm RightHand
      RightHand RightHand_dum1 RightHand_dum2
      RightHand_dum2 RightHandThumb1
      LeftShoulder LeftArm
      LeftArm LeftForeArm
      LeftForeArm LeftHand
      LeftHand LeftHand_dum1 LeftHand_dum2
      LeftHand_dum2 LeftHandThumb1
   end

# File created by Blade
# Date/Time:  Thu Jan 22 19:24:19 2015
# Frame Rate: 120.000 fps
#------------------------------------------------------
:FULLY-SPECIFIED
:DEGREES
140
root -1.896365 32.860758 -2.354282 9.057493 -4.448169 1.557885
RightUpLeg -2.442302 -8.040884 -6.000449
RightLeg -1.290442 -0.000000 0.000000
RightFoot -10.546577 -3.198332 6.830150
RightToeBase 6.734576 -0.000000 -0.000000
LeftUpLeg -1.637245 10.807640 7.278140
LeftLeg -0.073231 -0.000000 0.000000
LeftFoot -9.797907 3.334333 -22.885699
LeftToeBase 8.838459 -0.000000 -0.000000
Spine -9.641585 -0.916829 -0.698563
RightShoulder -19.199554 -9.471317 -29.970915
RightArm 18.417243 30.613515 36.129992
RightForeArm -15.121216 -0.000000 9.068973
RightHand 10.436669 -0.000000 10.915959
RightHandThumb1 -24.326973 -0.000000 -32.862282
LeftShoulder -24.070694 4.412595 32.554452
LeftArm 14.072629 -26.931705 -30.348760
LeftForeArm 27.646618 -0.000000 -0.096110
LeftHand -1.727394 0.000000 -10.583375
LeftHandThumb1 -26.253704 0.000000 33.147579
Head -6.105212 3.065589 0.305557
141
root -1.893465 32.860436 -2.352381 9.060150 -4.431335 1.562298
RightUpLeg -2.428354 -8.041768 -6.007331
RightLeg -1.310844 -0.000000 0.000000
RightFoot -10.536647 -3.216838 6.830547
RightToeBase 6.720357 -0.000000 -0.000000
LeftUpLeg -1.639227 10.814630 7.270376
LeftLeg -0.078359 -0.000000 0.000000
LeftFoot -9.787278 3.313294 -22.859558
LeftToeBase 8.824623 -0.000000 -0.000000
Spine -9.656248 -0.933477 -0.687100
RightShoulder -19.190852 -9.464741 -29.983478
RightArm 18.414302 30.610381 36.139476
RightForeArm -15.153927 -0.000000 9.067387
RightHand 10.431777 -0.000000 10.815522
RightHandThumb1 -24.326973 -0.000000 -32.862282
LeftShoulder -24.070568 4.438018 32.532522
LeftArm 14.081512 -26.933319 -30.358150
LeftForeArm 27.661253 -0.000000 -0.070301
LeftHand -1.754031 0.000000 -10.457084
LeftHandThumb1 -26.253704 0.000000 33.147579
Head -6.081445 3.106968 0.284353
142
root -1.892301 32.860607 -2.350911 9.064516 -4.426631 1.561628
RightUpLeg -2.428363 -8.019499 -6.010086
RightLeg -1.310715 -0.000000 0.000000
RightFoot -10.539711 -3.243286 6.855285
RightToeBase 6.757902 -0.000000 -0.000000
LeftUpLeg -1.639813 10.831242 7.271496
LeftLeg -0.082161 -0.000000 0.000000
LeftFoot -9.770196 3.285021 -22.849147
LeftToeBase 8.804578 -0.000000 -0.000000
Spine -9.671652 -0.922592 -0.688057
RightShoulder -19.200353 -9.469992 -29.975416
RightArm 18.417792 30.623635 36.156979
RightForeArm -15.159643 -0.000000 9.075600
RightHand 10.443691 0.000000 10.894427
RightHandThumb1 -24.326973 -0.000000 -32.862282
LeftShoulder -24.062107 4.444492 32.530274
LeftArm 14.094226 -26.926603 -30.372047
LeftForeArm 27.654838 -0.000000 -0.047092
LeftHand -1.746582 -0.000000 -10.436633
LeftHandThumb1 -26.253704 0.000000 33.147579
Head -6.041020 3.057352 0.285119
143
root -1.889844 32.860964 -2.350029 9.075954 -4.426268 1.565255
RightUpLeg -2.439949 -8.007875 -6.017444
RightLeg -1.308291 -0.000000 0.000000
RightFoot -10.541313 -3.256916 6.858509
RightToeBase 6.712198 -0.000000 -0.000000
LeftUpLeg -1.648386 10.834454 7.263232
LeftLeg -0.086725 -0.000000 0.000000
LeftFoot -9.768812 3.271810 -22.875162
LeftToeBase 8.821753 -0.000000 -0.000000
Spine -9.692823 -0.913293 -0.687481
RightShoulder -19.203388 -9.472445 -29.971578
RightArm 18.415592 30.621658 36.162760
RightForeArm -15.183167 0.000000 9.089978
RightHand 10.418656 -0.000000 10.805296
RightHandThumb1 -24.326973 -0.000000 -32.862282
LeftShoulder -24.062365 4.443058 32.527308
LeftArm 14.109043 -26.902751 -30.382585
LeftForeArm 27.650185 -0.000000 -0.041108
LeftHand -1.735732 -0.000000 -10.406563
LeftHandThumb1 -26.253704 0.000000 33.147579
Head -6.013868 3.059631 0.271977
144
root -1.888610 32.861069 -2.348178 9.076079 -4.424675 1.567531
RightUpLeg -2.435993 -7.977285 -6.022566
RightLeg -1.309934 -0.000000 0.000000
RightFoot -10.541469 -3.291985 6.865993
RightToeBase 6.722123 -0.000000 -0.000000
LeftUpLeg -1.646260 10.871028 7.259826
LeftLeg -0.086555 -0.000000 0.000000
LeftFoot -9.742254 3.223586 -22.862086
LeftToeBase 8.783218 -0.000000 -0.000000
Spine -9.702103 -0.910608 -0.686738
RightShoulder -19.201898 -9.487048 -29.971894
RightArm 18.425326 30.622640 36.186769
RightForeArm -15.188042 -0.000000 9.097120
RightHand 10.411128 -0.000000 10.777202
RightHandThumb1 -24.326973 -0.000000 -32.862282
LeftShoulder -24.059326 4.439903 32.528626
LeftArm 14.106953 -26.874852 -30.387819
LeftForeArm 27.625933 -0.000000 -0.010587
LeftHand -1.808327 -0.000000 -10.417848
LeftHandThumb1 -26.253704 0.000000 33.147579
Head -5.988442 3.071381 0.261011
145
root -1.887947 32.861002 -2.345649 9.075160 -4.426853 1.566642
RightUpLeg -2.434604 -7.982884 -6.023303
RightLeg -1.304831 -0.000000 0.000000
RightFoot -10.547998 -3.282997 6.853711
RightToeBase 6.789732 -0.000000 -0.000000
LeftUpLeg -1.637546 10.876638 7.261225
LeftLeg -0.091944 -0.000000 0.000000
LeftFoot -9.747206 3.222057 -22.858675
LeftToeBase 8.820999 -0.000000 -0.000000
Spine -9.711698 -0.906654 -0.683126
RightShoulder -19.202048 -9.493172 -29.977639
RightArm 18.433754 30.612431 36.209454
RightForeArm -15.157405 -0.000000 9.098193
RightHand 10.426942 -0.000000 10.777427
RightHandThumb1 -24.326973 -0.000000 -32.862282
LeftShoulder -24.058107 4.443589 32.526274
LeftArm 14.110851 -26.869198 -30.394452
LeftForeArm 27.624476 -0.000000 0.006819
LeftHand -1.873945 -0.000000 -10.419008
LeftHandThumb1 -26.253704 0.000000 33.147579
Head -5.964003 3.082903 0.246249
146
root -1.886969 32.861092 -2.343585 9.078228 -4.438905 1.563809
RightUpLeg -2.438174 -7.961665 -6.024787
RightLeg -1.301803 -0.000000 0.000000
RightFoot -10.547323 -3.290743 6.878941
RightToeBase 6.733523 -0.000000 -0.000000
LeftUpLeg -1.629069 10.900047 7.260248
LeftLeg -0.100850 -0.000000 0.000000
LeftFoot -9.742794 3.214714 -22.837875
LeftToeBase 8.811721 -0.000000 -0.000000
Spine -9.722572 -0.905018 -0.676086
RightShoulder -19.192716 -9.488337 -29.978686
RightArm 18.439819 30.607409 36.219326
RightForeArm -15.166067 -0.000000 9.110383
RightHand 10.436370 0.000000 10.790267
RightHandThumb1 -24.326973 -0.000000 -32.862282
LeftShoulder -24.067285 4.438686 32.528333
LeftArm 14.097817 -26.849120 -30.392246
LeftForeArm 27.613946 -0.000000 0.022068
LeftHand -1.859127 -0.000000 -10.421966
LeftHandThumb1 -26.253704 0.000000 33.147579
Head -5.944026 3.101890 0.230303
